<?xml version="1.0" encoding="UTF-8"?>
<svg version="1.1" xmlns="http://www.w3.org/2000/svg" width="512" height="512">
<path d="M0 0 C1.43907324 -0.00302603 2.87814488 -0.00691777 4.31721371 -0.01159257 C8.24450963 -0.02182315 12.17171375 -0.01970343 16.09901702 -0.01541197 C20.34522145 -0.01293572 24.59140429 -0.02197006 28.83760071 -0.02944946 C37.14603761 -0.04217369 45.45444215 -0.04399299 53.76288716 -0.0416492 C60.51927815 -0.03986328 67.27565935 -0.04162155 74.03204918 -0.04587364 C74.99511774 -0.04646883 75.95818631 -0.04706402 76.95043876 -0.04767724 C78.90717465 -0.04888905 80.86391054 -0.05010318 82.82064643 -0.05131962 C101.15527657 -0.06218646 119.4898883 -0.06003676 137.82451948 -0.05393478 C154.5788553 -0.04876676 171.33313296 -0.06001955 188.08745728 -0.07903299 C205.31152763 -0.09842892 222.5355705 -0.10666429 239.75965184 -0.10290974 C249.42133352 -0.10100032 259.0829657 -0.10346003 268.74463844 -0.11762428 C276.97008572 -0.12956145 285.19545303 -0.13091685 293.42090145 -0.11883412 C297.61304088 -0.11296172 301.80503423 -0.11180034 305.99716377 -0.12383652 C309.8433462 -0.13475058 313.68926154 -0.13152706 317.53543177 -0.11757483 C319.56754202 -0.11370723 321.59966439 -0.12442967 323.63174611 -0.13587171 C332.33182042 -0.08517826 340.09417605 1.12697747 348.52201843 3.26069641 C348.52201843 6.26069641 348.52201843 6.26069641 347.36719447 7.78236252 C346.8200698 8.32563767 346.27294512 8.86891282 345.70924091 9.42865086 C344.76812426 10.37410199 344.76812426 10.37410199 343.80799514 11.33865315 C343.1071441 12.02735507 342.40629305 12.71605699 341.6842041 13.42562866 C340.94860895 14.16025926 340.21301381 14.89488985 339.45512789 15.65178198 C336.9724847 18.12762379 334.47929275 20.59257072 331.98612976 23.05781555 C330.21033746 24.8245819 328.43523749 26.59204436 326.66078186 28.3601532 C322.82944836 32.17518714 318.99374592 35.98574471 315.15438271 39.792696 C309.59530556 45.30529766 304.04687618 50.82852008 298.50149377 56.35489409 C289.49420201 65.33119895 280.48207022 74.30262516 271.46513367 83.26924133 C270.92514395 83.806223 270.38515422 84.34320466 269.82880118 84.8964585 C263.81082585 90.88065088 257.79140725 96.86338764 251.77006531 102.8441925 C251.22960666 103.38101762 250.68914801 103.91784274 250.13231183 104.47093528 C249.59244883 105.00716766 249.05258583 105.54340004 248.49636334 106.09588188 C247.40782633 107.17710373 246.31929143 108.25832771 245.23075867 109.33955383 C244.69293948 109.87375783 244.1551203 110.40796183 243.60100356 110.95835382 C234.62074717 119.87876919 225.6502489 128.80892658 216.68742579 137.74685758 C211.16109273 143.25703217 205.6266308 148.75878436 200.08132597 154.24986701 C195.82602864 158.46494856 191.58382646 162.69296536 187.34621811 166.92583847 C185.60955194 168.65634965 183.86859058 170.38256294 182.12299538 172.10406685 C179.73514101 174.46018732 177.36334416 176.8314179 174.99475098 179.20687866 C174.30505354 179.87996553 173.61535611 180.5530524 172.90475875 181.24653584 C165.92074678 188.31893323 162.18158713 196.59101704 159.95951843 206.19819641 C159.75681335 207.05719543 159.55410828 207.91619446 159.34526062 208.80122375 C155.53760167 226.2157516 154.16915971 244.40858773 152.77690125 262.15473938 C152.52201843 264.26069641 152.52201843 264.26069641 151.52201843 267.26069641 C180.88996429 264.3914841 180.88996429 264.3914841 210.02201843 259.82319641 C210.94168396 259.65473206 211.86134949 259.4862677 212.80888367 259.31269836 C229.32766182 255.85621062 238.84216626 245.76741111 250.28422546 234.14790344 C252.0449673 232.38218925 253.80705348 230.61781476 255.57037354 228.85467529 C259.34906117 225.07059628 263.11848169 221.27764607 266.87971878 217.47624588 C272.31883979 211.9792541 277.77564638 206.50009266 283.23697339 201.02517258 C292.10088355 192.13843372 300.95205588 183.23912434 309.79447937 174.33100891 C318.37624087 165.68557398 326.96151977 157.04366819 335.55326843 148.40815735 C336.08365715 147.87506148 336.61404587 147.34196561 337.16050698 146.79271533 C342.94741255 140.97654652 348.73571976 135.16177549 354.52569389 129.34866142 C355.03394509 128.83837346 355.54219628 128.3280855 356.06584903 127.80233427 C358.0970264 125.76305468 360.12821857 123.72378988 362.15959047 121.68470405 C368.10947491 115.71215413 374.05492075 109.73526481 379.99251132 103.75049154 C384.14788023 99.56232635 388.30784302 95.37874671 392.46946526 91.19679451 C394.17973054 89.47635028 395.88823973 87.75415839 397.59490776 86.03014565 C399.914338 83.68751304 402.23972776 81.3509647 404.56672668 79.01585388 C405.24919531 78.32346686 405.93166394 77.63107983 406.63481343 76.91771138 C407.56497771 75.98796995 407.56497771 75.98796995 408.51393318 75.03944588 C409.05042838 74.4989388 409.58692358 73.95843172 410.13967621 73.40154564 C411.52201843 72.26069641 411.52201843 72.26069641 413.52201843 72.26069641 C415.59043476 80.39416624 415.8067508 88.21249337 415.78271484 96.57373047 C415.78574002 98.00710317 415.78963133 99.44047427 415.79430741 100.87384254 C415.80454934 104.79006565 415.80241533 108.70619682 415.79812682 112.62242734 C415.79565259 116.85503514 415.80468248 121.0876212 415.81216431 125.32022095 C415.82489487 133.60439861 415.82670698 141.88854384 415.82436404 150.17272963 C415.82257857 156.91006655 415.82433544 163.64739364 415.82858849 170.38472939 C415.82918367 171.34486935 415.82977886 172.30500932 415.83039209 173.29424444 C415.83160389 175.24501913 415.83281802 177.19579383 415.83403447 179.14656851 C415.84490407 197.430197 415.84275049 215.71380704 415.83664962 233.99743656 C415.83148328 250.70266152 415.84272948 267.40782812 415.86174784 284.11304154 C415.88114829 301.28623453 415.88937822 318.45939993 415.88562459 335.63260394 C415.8837156 345.26582784 415.88617042 354.8990021 415.90033913 364.53221703 C415.91228219 372.73496938 415.91362525 380.93764155 415.90154896 389.14039507 C415.89568022 393.32049999 415.89450486 397.50045846 415.90655136 401.68055344 C415.91747826 405.5169593 415.91422697 409.35309766 415.90028968 413.18949137 C415.89642865 415.21395102 415.90713407 417.23842286 415.91858655 419.2628538 C415.76741475 445.18878216 405.45078686 467.69139901 387.52201843 486.26069641 C368.58348739 504.61974528 345.19534244 512.59660785 319.08872986 512.52139282 C317.6544941 512.52441889 316.22025996 512.52831065 314.78602862 512.53298539 C310.8720648 512.5432156 306.95819308 512.54109634 303.04422188 512.5368048 C298.81231335 512.53432845 294.58042649 512.54336304 290.348526 512.55084229 C282.06782755 512.56356659 273.78716156 512.56538577 265.50645497 512.56304202 C258.77200239 512.56125599 252.03755963 512.56301462 245.30310822 512.56726646 C244.34310374 512.56786165 243.38309926 512.56845684 242.39400373 512.56907007 C240.44347058 512.57028187 238.49293742 512.57149601 236.54240426 512.57271244 C218.26544786 512.58357946 199.98850991 512.58142959 181.71155247 512.5753276 C165.01285761 512.57016046 148.31422111 512.58141003 131.61553779 512.60042582 C114.4468332 512.61982611 97.27815619 512.62805629 80.10944057 512.62430257 C70.47958502 512.62239368 60.84977913 512.62484742 51.21993256 512.63901711 C43.02086421 512.6509599 34.82187609 512.65230346 26.62280658 512.64022694 C22.44471995 512.63435826 18.26677983 512.63318271 14.08870316 512.64522934 C10.25418757 512.65615627 6.41993962 512.65290492 2.5854362 512.63896766 C0.56201827 512.63510669 -1.46141186 512.64581194 -3.48480105 512.65726453 C-29.40855487 512.50602994 -51.91052868 502.18768396 -70.47798157 484.26069641 C-88.83703043 465.32216537 -96.81389301 441.93402042 -96.73867798 415.82740784 C-96.74170405 414.39317208 -96.74559581 412.95893793 -96.75027055 411.5247066 C-96.76050076 407.61074278 -96.7583815 403.69687106 -96.75408995 399.78289986 C-96.7516136 395.55099133 -96.76064819 391.31910447 -96.76812744 387.08720398 C-96.78085175 378.80650553 -96.78267093 370.52583954 -96.78032718 362.24513295 C-96.77854115 355.51068037 -96.78029977 348.77623761 -96.78455162 342.04178619 C-96.78514681 341.08178172 -96.785742 340.12177724 -96.78635522 339.13268171 C-96.78756703 337.18214855 -96.78878117 335.2316154 -96.7899976 333.28108224 C-96.80086462 315.00412583 -96.79871475 296.72718789 -96.79261275 278.45023045 C-96.78744561 261.75153558 -96.79869519 245.05289909 -96.81771097 228.35421577 C-96.83711126 211.18551118 -96.84534145 194.01683417 -96.84158772 176.84811854 C-96.83967884 167.218263 -96.84213258 157.58845711 -96.85630226 147.95861053 C-96.86824506 139.75954219 -96.86958862 131.56055406 -96.85751209 123.36148456 C-96.85164341 119.18339792 -96.85046787 115.00545781 -96.8625145 110.82738113 C-96.87344143 106.99286554 -96.87019008 103.1586176 -96.85625281 99.32411417 C-96.85239185 97.30069625 -96.8630971 95.27726612 -96.87454969 93.25387692 C-96.7233151 67.3301231 -86.40496911 44.8281493 -68.47798157 26.26069641 C-49.5229527 7.88565452 -26.12639428 -0.07501052 0 0 Z " fill="#000000" transform="translate(96.47798156738281,-0.2606964111328125)"/>
</svg>
